<?xml version="1.0" encoding="UTF-8"?> <svg xmlns="http://www.w3.org/2000/svg" width="589" height="234" viewBox="0 0 589 234" fill="none"><g filter="url(#filter0_i_169_32)"><path fill-rule="evenodd" clip-rule="evenodd" d="M175.793 104.897C175.793 131.349 154.349 152.793 127.897 152.793C115.677 152.793 104.525 148.217 96.0634 140.685L105.876 130.872C111.813 135.91 119.5 138.949 127.897 138.949C146.703 138.949 161.949 123.703 161.949 104.897C161.949 96.5 158.91 88.8131 153.872 82.876L163.685 73.0634C171.217 81.5254 175.793 92.6766 175.793 104.897ZM101.957 126.96L92.1457 136.772C84.5913 128.305 80 117.137 80 104.897C80 92.6566 84.5913 81.4889 92.1457 73.0218L101.957 82.8335C96.8977 88.7764 93.8441 96.48 93.8441 104.897C93.8441 113.313 96.8977 121.017 101.957 126.96ZM105.876 78.9213C111.813 73.8831 119.5 70.8441 127.897 70.8441C136.313 70.8441 144.017 73.8977 149.96 78.9575L159.772 69.1457C151.305 61.5913 140.137 57 127.897 57C115.677 57 104.525 61.5763 96.0634 69.1087L105.876 78.9213Z" fill="url(#paint0_linear_169_32)"></path><path fill-rule="evenodd" clip-rule="evenodd" d="M118.207 143.103C118.207 116.651 139.651 95.2066 166.103 95.2066C178.323 95.2066 189.475 99.7829 197.937 107.315L188.124 117.128C182.187 112.09 174.5 109.051 166.103 109.051C147.297 109.051 132.051 124.297 132.051 143.103C132.051 151.5 135.09 159.187 140.128 165.124L130.315 174.937C122.783 166.475 118.207 155.323 118.207 143.103ZM192.043 121.04L201.854 111.228C209.409 119.695 214 130.863 214 143.103C214 155.343 209.409 166.511 201.854 174.978L192.043 165.166C197.102 159.224 200.156 151.52 200.156 143.103C200.156 134.687 197.102 126.983 192.043 121.04ZM188.124 169.079L197.937 178.891C189.475 186.424 178.323 191 166.103 191C153.863 191 142.695 186.409 134.228 178.854L144.04 169.043C149.983 174.102 157.687 177.156 166.103 177.156C174.5 177.156 182.187 174.117 188.124 169.079Z" fill="#D9D9D9"></path><path fill-rule="evenodd" clip-rule="evenodd" d="M118.207 143.103C118.207 116.651 139.651 95.2066 166.103 95.2066C178.323 95.2066 189.475 99.7829 197.937 107.315L188.124 117.128C182.187 112.09 174.5 109.051 166.103 109.051C147.297 109.051 132.051 124.297 132.051 143.103C132.051 151.5 135.09 159.187 140.128 165.124L130.315 174.937C122.783 166.475 118.207 155.323 118.207 143.103ZM192.043 121.04L201.854 111.228C209.409 119.695 214 130.863 214 143.103C214 155.343 209.409 166.511 201.854 174.978L192.043 165.166C197.102 159.224 200.156 151.52 200.156 143.103C200.156 134.687 197.102 126.983 192.043 121.04ZM188.124 169.079L197.937 178.891C189.475 186.424 178.323 191 166.103 191C153.863 191 142.695 186.409 134.228 178.854L144.04 169.043C149.983 174.102 157.687 177.156 166.103 177.156C174.5 177.156 182.187 174.117 188.124 169.079Z" fill="url(#paint1_linear_169_32)"></path><path fill-rule="evenodd" clip-rule="evenodd" d="M92.1457 73.0218C84.5913 81.4889 80 92.6566 80 104.897C80 117.137 84.5913 128.305 92.1457 136.772L101.957 126.96C96.8977 121.017 93.8441 113.313 93.8441 104.897C93.8441 96.48 96.8977 88.7764 101.957 82.8335L92.1457 73.0218ZM149.96 130.836C144.017 135.896 136.313 138.949 127.897 138.949C119.5 138.949 111.813 135.91 105.876 130.872L96.0634 140.685C104.525 148.217 115.677 152.793 127.897 152.793C140.137 152.793 151.305 148.202 159.772 140.648L149.96 130.836Z" fill="url(#paint2_linear_169_32)"></path></g><path d="M351.11 161.202C349.097 161.202 347.572 160.712 346.533 159.73C345.511 158.732 345 157.284 345 155.387V143.853H347.921V155.362C347.921 156.491 348.164 157.301 348.651 157.791C349.138 158.266 349.957 158.503 351.11 158.503V161.202ZM350.696 148.761V151.46H346.047V148.761H350.696Z" fill="white"></path><path d="M360.875 153.178C360.615 152.573 360.218 152.107 359.682 151.779C359.163 151.452 358.538 151.289 357.808 151.289C357.078 151.289 356.453 151.452 355.934 151.779C355.415 152.107 355.025 152.573 354.766 153.178H360.875ZM357.808 158.552C359.041 158.552 359.958 158.11 360.559 157.227H363.747C363.342 158.47 362.62 159.452 361.581 160.172C360.559 160.892 359.309 161.251 357.833 161.251C356.891 161.251 356.031 161.104 355.252 160.81C354.474 160.499 353.808 160.065 353.256 159.509C352.705 158.953 352.275 158.282 351.966 157.497C351.674 156.712 351.528 155.845 351.528 154.896C351.528 153.947 351.674 153.088 351.966 152.319C352.275 151.534 352.705 150.871 353.256 150.332C353.808 149.775 354.474 149.35 355.252 149.056C356.031 148.745 356.891 148.589 357.833 148.589C358.774 148.589 359.626 148.745 360.388 149.056C361.167 149.35 361.833 149.775 362.384 150.332C362.936 150.871 363.358 151.534 363.65 152.319C363.958 153.088 364.112 153.947 364.112 154.896C364.112 155.076 364.104 155.248 364.088 155.411C364.088 155.558 364.08 155.714 364.064 155.877H354.547C354.709 156.728 355.074 157.391 355.642 157.865C356.21 158.323 356.932 158.552 357.808 158.552Z" fill="white"></path><path d="M365.228 143.853H368.149V161.031H365.228V143.853Z" fill="white"></path><path d="M378.608 153.178C378.348 152.573 377.951 152.107 377.415 151.779C376.896 151.452 376.271 151.289 375.541 151.289C374.811 151.289 374.186 151.452 373.667 151.779C373.147 152.107 372.758 152.573 372.498 153.178H378.608ZM375.541 158.552C376.774 158.552 377.691 158.11 378.291 157.227H381.48C381.074 158.47 380.352 159.452 379.314 160.172C378.291 160.892 377.042 161.251 375.565 161.251C374.624 161.251 373.764 161.104 372.985 160.81C372.206 160.499 371.541 160.065 370.989 159.509C370.437 158.953 370.007 158.282 369.699 157.497C369.407 156.712 369.261 155.845 369.261 154.896C369.261 153.947 369.407 153.088 369.699 152.319C370.007 151.534 370.437 150.871 370.989 150.332C371.541 149.775 372.206 149.35 372.985 149.056C373.764 148.745 374.624 148.589 375.565 148.589C376.506 148.589 377.358 148.745 378.121 149.056C378.9 149.35 379.565 149.775 380.117 150.332C380.669 150.871 381.091 151.534 381.383 152.319C381.691 153.088 381.845 153.947 381.845 154.896C381.845 155.076 381.837 155.248 381.821 155.411C381.821 155.558 381.813 155.714 381.796 155.877H372.279C372.441 156.728 372.807 157.391 373.375 157.865C373.942 158.323 374.665 158.552 375.541 158.552Z" fill="white"></path><path d="M388.559 148.54C389.565 148.54 390.385 148.712 391.017 149.056C391.666 149.383 392.178 149.808 392.551 150.332C392.94 150.839 393.216 151.395 393.378 152C393.541 152.606 393.638 153.178 393.671 153.718L394.157 161.031H391.236V153.792C391.236 153.35 391.163 152.974 391.017 152.663C390.871 152.352 390.677 152.09 390.433 151.878C390.19 151.665 389.906 151.509 389.581 151.411C389.257 151.313 388.916 151.264 388.559 151.264C388.202 151.264 387.861 151.313 387.537 151.411C387.212 151.509 386.928 151.665 386.685 151.878C386.441 152.09 386.247 152.352 386.101 152.663C385.955 152.974 385.881 153.35 385.881 153.792V161.031H382.961V153.718C382.961 153.178 383.058 152.606 383.253 152C383.464 151.395 383.796 150.839 384.251 150.332C384.705 149.808 385.281 149.383 385.979 149.056C386.693 148.712 387.553 148.54 388.559 148.54ZM396.835 148.54C397.841 148.54 398.693 148.712 399.391 149.056C400.105 149.383 400.689 149.808 401.143 150.332C401.598 150.839 401.922 151.395 402.117 152C402.328 152.606 402.433 153.178 402.433 153.718V161.031H399.512V153.792C399.512 153.35 399.439 152.974 399.293 152.663C399.147 152.352 398.952 152.09 398.709 151.878C398.466 151.665 398.182 151.509 397.857 151.411C397.533 151.313 397.192 151.264 396.835 151.264C396.478 151.264 396.137 151.313 395.813 151.411C395.488 151.509 395.204 151.665 394.961 151.878C394.717 152.09 394.522 152.352 394.376 152.663C394.23 152.974 394.157 153.35 394.157 153.792V161.031H391.236L391.723 153.718C391.756 153.178 391.853 152.606 392.015 152C392.178 151.395 392.445 150.839 392.819 150.332C393.208 149.808 393.719 149.383 394.352 149.056C395.001 148.712 395.829 148.54 396.835 148.54Z" fill="white"></path><path d="M409.817 148.589C410.758 148.589 411.618 148.745 412.397 149.056C413.176 149.35 413.841 149.775 414.393 150.332C414.945 150.888 415.367 151.559 415.659 152.344C415.967 153.129 416.121 153.996 416.121 154.945V161.031H413.2V159.853C412.908 160.229 412.454 160.556 411.837 160.834C411.237 161.112 410.49 161.251 409.598 161.251C408.722 161.251 407.91 161.104 407.164 160.81C406.417 160.499 405.776 160.065 405.241 159.509C404.705 158.953 404.284 158.282 403.975 157.497C403.683 156.712 403.537 155.845 403.537 154.896C403.537 153.947 403.683 153.088 403.975 152.319C404.284 151.534 404.714 150.871 405.265 150.332C405.817 149.775 406.474 149.35 407.237 149.056C408.016 148.745 408.876 148.589 409.817 148.589ZM413.2 154.92C413.2 153.775 412.892 152.884 412.275 152.246C411.675 151.608 410.864 151.289 409.841 151.289C408.819 151.289 408 151.608 407.383 152.246C406.766 152.884 406.458 153.775 406.458 154.92C406.458 156.066 406.766 156.957 407.383 157.595C408 158.233 408.819 158.552 409.841 158.552C410.864 158.552 411.675 158.233 412.275 157.595C412.892 156.957 413.2 156.066 413.2 154.92Z" fill="white"></path><path d="M423.466 161.202C421.454 161.202 419.929 160.712 418.89 159.73C417.868 158.732 417.357 157.284 417.357 155.387V143.853H420.278V155.362C420.278 156.491 420.521 157.301 421.008 157.791C421.495 158.266 422.314 158.503 423.466 158.503V161.202ZM423.053 148.761V151.46H418.403V148.761H423.053Z" fill="white"></path><path d="M424.511 148.761H427.432V161.031H424.511V148.761ZM424.365 145.203C424.365 144.761 424.519 144.385 424.828 144.074C425.136 143.747 425.517 143.583 425.972 143.583C426.426 143.583 426.807 143.747 427.116 144.074C427.424 144.385 427.578 144.761 427.578 145.203C427.578 145.677 427.424 146.07 427.116 146.381C426.807 146.692 426.426 146.847 425.972 146.847C425.517 146.847 425.136 146.692 424.828 146.381C424.519 146.07 424.365 145.677 424.365 145.203Z" fill="white"></path><path d="M428.885 143.853H431.806V156.295L437.307 148.761H440.787L436.284 154.896L440.69 161.031H437.234L434.556 157.276L431.806 161.031H428.885V143.853Z" fill="white"></path><path d="M446.471 148.589C447.412 148.589 448.272 148.745 449.051 149.056C449.83 149.35 450.495 149.775 451.047 150.332C451.599 150.888 452.021 151.559 452.313 152.344C452.621 153.129 452.775 153.996 452.775 154.945V161.031H449.854V159.853C449.562 160.229 449.108 160.556 448.491 160.834C447.891 161.112 447.144 161.251 446.252 161.251C445.375 161.251 444.564 161.104 443.818 160.81C443.071 160.499 442.43 160.065 441.895 159.509C441.359 158.953 440.937 158.282 440.629 157.497C440.337 156.712 440.191 155.845 440.191 154.896C440.191 153.947 440.337 153.088 440.629 152.319C440.937 151.534 441.367 150.871 441.919 150.332C442.471 149.775 443.128 149.35 443.891 149.056C444.67 148.745 445.53 148.589 446.471 148.589ZM449.854 154.92C449.854 153.775 449.546 152.884 448.929 152.246C448.329 151.608 447.517 151.289 446.495 151.289C445.473 151.289 444.653 151.608 444.037 152.246C443.42 152.884 443.112 153.775 443.112 154.92C443.112 156.066 443.42 156.957 444.037 157.595C444.653 158.233 445.473 158.552 446.495 158.552C447.517 158.552 448.329 158.233 448.929 157.595C449.546 156.957 449.854 156.066 449.854 154.92Z" fill="white"></path><path d="M260.23 83.7113H241V73.1301H291.053V83.7113H271.731V137.537H260.23V83.7113Z" fill="white"></path><path d="M309.008 138.365C305.205 138.365 301.954 137.752 299.255 136.525C296.618 135.237 294.44 133.642 292.722 131.74C291.005 129.778 289.747 127.661 288.95 125.392C288.214 123.122 287.846 120.975 287.846 118.951V91.5321H298.887V118.675C298.887 120.331 299.163 121.742 299.715 122.907C300.267 124.073 301.003 125.054 301.923 125.852C302.844 126.649 303.917 127.232 305.144 127.6C306.371 127.968 307.659 128.152 309.008 128.152C310.358 128.152 311.646 127.968 312.873 127.6C314.099 127.232 315.173 126.649 316.093 125.852C317.013 125.054 317.749 124.073 318.301 122.907C318.853 121.742 319.129 120.331 319.129 118.675V91.5321H330.17V118.951C330.17 120.975 329.772 123.122 328.974 125.392C328.238 127.661 327.011 129.778 325.294 131.74C323.576 133.642 321.368 135.237 318.669 136.525C316.032 137.752 312.811 138.365 309.008 138.365Z" fill="white"></path><path d="M334.3 111.774C334.3 104.782 336.355 99.537 340.465 96.0406C344.575 92.4829 350.126 90.704 357.119 90.704V100.825C353.438 100.825 350.555 101.745 348.47 103.585C346.384 105.364 345.341 108.094 345.341 111.774V137.537H334.3V111.774Z" fill="white"></path><path d="M381.368 90.888C384.926 90.888 388.177 91.4708 391.121 92.6362C394.066 93.7403 396.58 95.3352 398.666 97.4207C400.752 99.5063 402.346 102.021 403.451 104.966C404.616 107.91 405.199 111.161 405.199 114.719V137.537H394.158V133.121C393.053 134.531 391.336 135.758 389.005 136.801C386.735 137.844 383.914 138.365 380.54 138.365C377.228 138.365 374.161 137.813 371.339 136.709C368.517 135.543 366.095 133.918 364.07 131.832C362.046 129.747 360.451 127.232 359.286 124.288C358.182 121.343 357.63 118.092 357.63 114.535C357.63 110.977 358.182 107.756 359.286 104.874C360.451 101.929 362.077 99.4449 364.162 97.4207C366.248 95.3352 368.732 93.7403 371.615 92.6362C374.559 91.4708 377.81 90.888 381.368 90.888ZM394.158 114.627C394.158 110.333 392.992 106.99 390.661 104.597C388.392 102.205 385.325 101.009 381.46 101.009C377.596 101.009 374.498 102.205 372.167 104.597C369.836 106.99 368.671 110.333 368.671 114.627C368.671 118.92 369.836 122.263 372.167 124.656C374.498 127.048 377.596 128.244 381.46 128.244C385.325 128.244 388.392 127.048 390.661 124.656C392.992 122.263 394.158 118.92 394.158 114.627Z" fill="white"></path><path d="M431.838 90.704C435.641 90.704 438.861 91.3481 441.499 92.6362C444.198 93.863 446.406 95.4578 448.123 97.4207C449.841 99.3223 451.068 101.408 451.804 103.677C452.601 105.947 453 108.094 453 110.118V137.537H441.959V110.394C441.959 108.738 441.683 107.327 441.131 106.162C440.579 104.996 439.843 104.015 438.922 103.217C438.002 102.42 436.929 101.837 435.702 101.469C434.475 101.101 433.187 100.917 431.838 100.917C430.488 100.917 429.2 101.101 427.973 101.469C426.747 101.837 425.673 102.42 424.753 103.217C423.833 104.015 423.097 104.996 422.545 106.162C421.993 107.327 421.717 108.738 421.717 110.394V137.537H410.675V110.118C410.675 108.094 411.044 105.947 411.78 103.677C412.577 101.408 413.834 99.3223 415.552 97.4207C417.27 95.4578 419.447 93.863 422.085 92.6362C424.784 91.3481 428.035 90.704 431.838 90.704Z" fill="white"></path><defs><filter id="filter0_i_169_32" x="80" y="55.8926" width="134" height="135.107" filterUnits="userSpaceOnUse" color-interpolation-filters="sRGB"><feFlood flood-opacity="0" result="BackgroundImageFix"></feFlood><feBlend mode="normal" in="SourceGraphic" in2="BackgroundImageFix" result="shape"></feBlend><feColorMatrix in="SourceAlpha" type="matrix" values="0 0 0 0 0 0 0 0 0 0 0 0 0 0 0 0 0 0 127 0" result="hardAlpha"></feColorMatrix><feOffset dy="-1.10744"></feOffset><feGaussianBlur stdDeviation="3.26694"></feGaussianBlur><feComposite in2="hardAlpha" operator="arithmetic" k2="-1" k3="1"></feComposite><feColorMatrix type="matrix" values="0 0 0 0 1 0 0 0 0 1 0 0 0 0 1 0 0 0 0.05 0"></feColorMatrix><feBlend mode="normal" in2="shape" result="effect1_innerShadow_169_32"></feBlend></filter><linearGradient id="paint0_linear_169_32" x1="87.4752" y1="110.711" x2="169.149" y2="105.174" gradientUnits="userSpaceOnUse"><stop stop-color="#089B63"></stop><stop offset="1" stop-color="#032613"></stop></linearGradient><linearGradient id="paint1_linear_169_32" x1="206.525" y1="137.289" x2="124.851" y2="142.826" gradientUnits="userSpaceOnUse"><stop stop-color="#089B63"></stop><stop offset="1" stop-color="#032613"></stop></linearGradient><linearGradient id="paint2_linear_169_32" x1="87.4752" y1="110.711" x2="169.149" y2="105.174" gradientUnits="userSpaceOnUse"><stop stop-color="#089B63"></stop><stop offset="1" stop-color="#032613"></stop></linearGradient></defs></svg>
